<?xml version="1.0" encoding="UTF-8" standalone="no"?>
<svg
   xmlns:dc="http://purl.org/dc/elements/1.1/"
   xmlns:cc="http://creativecommons.org/ns#"
   xmlns:rdf="http://www.w3.org/1999/02/22-rdf-syntax-ns#"
   xmlns:svg="http://www.w3.org/2000/svg"
   xmlns="http://www.w3.org/2000/svg"
   viewBox="0 0 1052.3625 407.48001"
   height="407.48001"
   width="1052.3625"
   xml:space="preserve"
   version="1.1"
   id="svg2"><metadata
     id="metadata8"><rdf:RDF><cc:Work
         rdf:about=""><dc:format>image/svg+xml</dc:format><dc:type
           rdf:resource="http://purl.org/dc/dcmitype/StillImage" /></cc:Work></rdf:RDF></metadata><defs
     id="defs6"><clipPath
       id="clipPath16"
       clipPathUnits="userSpaceOnUse"><path
         id="path18"
         d="m 0,0 841.89,0 0,325.984 L 0,325.984 0,0 Z" /></clipPath></defs><g
     transform="matrix(1.25,0,0,-1.25,0,407.48)"
     id="g10"><g
       id="g12"><g
         clip-path="url(#clipPath16)"
         id="g14"><g
           transform="translate(31.2923,154.2271)"
           id="g20"><path
             id="path22"
             style="fill:#cccccc;fill-opacity:1;fill-rule:nonzero;stroke:none"
             d="m 0,0 0,28.601 126.756,0 0,-28.601 -46.369,0 0,-126.106 -34.018,0 L 46.369,0 0,0 Z m 257.996,28.601 0,-28.601 -81.688,0 0,-33.152 74.971,0 0,-26.434 -74.971,0 0,-37.919 83.421,0 0,-28.601 -117.439,0 0,154.707 115.706,0 z M 275.524,0 l 0,28.601 126.756,0 0,-28.601 -46.369,0 0,-126.106 -34.018,0 0,126.106 -46.369,0 z M 489.1,-41.385 c 7.801,0 13.651,1.733 17.551,5.2 3.9,3.467 5.851,9.1 5.851,16.901 0,7.509 -1.951,12.963 -5.851,16.359 -3.9,3.392 -9.75,5.092 -17.551,5.092 l -37.268,0 0,-43.552 37.268,0 z m 12.134,69.986 c 6.934,0 13.18,-1.12 18.743,-3.358 5.559,-2.241 10.326,-5.309 14.301,-9.209 3.971,-3.9 7.004,-8.416 9.1,-13.542 2.092,-5.129 3.142,-10.655 3.142,-16.576 0,-9.1 -1.916,-16.975 -5.742,-23.618 -3.829,-6.646 -10.076,-11.7 -18.743,-15.167 l 0,-0.434 c 4.188,-1.157 7.655,-2.925 10.401,-5.308 2.742,-2.384 4.983,-5.2 6.717,-8.451 1.733,-3.25 2.996,-6.825 3.792,-10.725 0.792,-3.9 1.334,-7.8 1.625,-11.701 0.142,-2.458 0.288,-5.345 0.433,-8.667 0.142,-3.324 0.396,-6.717 0.758,-10.183 0.359,-3.467 0.938,-6.755 1.734,-9.859 0.792,-3.108 1.984,-5.742 3.575,-7.909 l -34.018,0 c -1.879,4.909 -3.034,10.759 -3.467,17.551 -0.433,6.788 -1.083,13.288 -1.95,19.501 -1.158,8.088 -3.613,14.009 -7.367,17.767 -3.758,3.755 -9.896,5.634 -18.418,5.634 l -34.018,0 0,-60.453 -34.018,0 0,154.707 83.42,0 z M 670.131,-87.971 c 1.875,-3.612 4.367,-6.537 7.475,-8.775 3.105,-2.242 6.751,-3.9 10.942,-4.984 4.188,-1.083 8.522,-1.625 13.001,-1.625 3.033,0 6.284,0.251 9.75,0.758 3.467,0.505 6.717,1.48 9.751,2.926 3.033,1.442 5.559,3.429 7.583,5.958 2.022,2.526 3.034,5.742 3.034,9.642 0,4.188 -1.337,7.584 -4.009,10.184 -2.674,2.6 -6.175,4.767 -10.508,6.5 -4.334,1.734 -9.246,3.251 -14.734,4.551 -5.492,1.3 -11.051,2.742 -16.685,4.333 -5.779,1.442 -11.412,3.213 -16.9,5.309 -5.492,2.092 -10.401,4.801 -14.734,8.125 -4.334,3.321 -7.838,7.476 -10.509,12.459 -2.675,4.984 -4.009,11.013 -4.009,18.093 0,7.942 1.696,14.842 5.092,20.692 3.392,5.851 7.834,10.726 13.326,14.626 5.488,3.9 11.7,6.788 18.634,8.667 6.934,1.876 13.867,2.817 20.801,2.817 8.088,0 15.851,-0.904 23.293,-2.709 7.438,-1.807 14.046,-4.733 19.826,-8.775 5.776,-4.046 10.363,-9.209 13.759,-15.492 3.392,-6.284 5.092,-13.905 5.092,-22.86 l -32.935,0 c -0.291,4.621 -1.266,8.451 -2.925,11.484 -1.663,3.034 -3.867,5.417 -6.609,7.15 -2.746,1.734 -5.888,2.959 -9.426,3.684 -3.541,0.721 -7.404,1.083 -11.592,1.083 -2.745,0 -5.491,-0.291 -8.233,-0.866 -2.746,-0.579 -5.238,-1.592 -7.476,-3.034 -2.241,-1.446 -4.083,-3.25 -5.525,-5.417 -1.446,-2.167 -2.167,-4.912 -2.167,-8.234 0,-3.033 0.576,-5.491 1.734,-7.367 1.154,-1.879 3.429,-3.612 6.825,-5.2 3.392,-1.591 8.088,-3.179 14.084,-4.767 5.992,-1.591 13.83,-3.612 23.509,-6.067 2.888,-0.579 6.897,-1.625 12.026,-3.141 5.126,-1.517 10.218,-3.938 15.276,-7.259 5.054,-3.325 9.425,-7.767 13.109,-13.326 3.683,-5.562 5.525,-12.675 5.525,-21.342 0,-7.08 -1.375,-13.651 -4.117,-19.718 -2.746,-6.067 -6.825,-11.305 -12.242,-15.709 -5.417,-4.408 -12.134,-7.838 -20.151,-10.292 -8.017,-2.455 -17.3,-3.684 -27.843,-3.684 -8.525,0 -16.793,1.05 -24.81,3.142 -8.017,2.092 -15.096,5.38 -21.234,9.859 -6.142,4.476 -11.017,10.184 -14.626,17.117 -3.612,6.934 -5.346,15.168 -5.2,24.701 l 32.935,0 c 0,-5.2 0.938,-9.608 2.817,-13.217" /></g><path
           id="path24"
           style="fill:none;stroke:#cccccc;stroke-width:14.77299976;stroke-linecap:butt;stroke-linejoin:miter;stroke-miterlimit:4;stroke-dasharray:none;stroke-opacity:1"
           d="m 640.367,14.149 182.979,0 0,182.979 -182.979,0 0,-182.979 z" /><path
           id="path26"
           style="fill:none;stroke:#cccccc;stroke-width:14.77299976;stroke-linecap:butt;stroke-linejoin:miter;stroke-miterlimit:4;stroke-dasharray:none;stroke-opacity:1"
           d="m 602.474,14.149 -587.091,0 0,182.979 587.091,0 0,-182.979 z" /><g
           transform="translate(7.9964,214.6191)"
           id="g28"><path
             id="path30"
             style="fill:#cccccc;fill-opacity:1;fill-rule:nonzero;stroke:none"
             d="m 0,0 6.446,0 0,96.692 0.293,0 L 47.028,0 l 6.446,0 39.849,96.692 0.293,0 0,-96.692 6.446,0 0,104.603 -9.23,0 -40.435,-97.424 -0.293,0 L 9.23,104.603 0,104.603 0,0 Z m 120.265,104.603 0,-62.703 c 0,-2.344 0.096,-5.054 0.293,-8.131 0.194,-3.077 0.732,-6.252 1.611,-9.523 0.879,-3.273 2.147,-6.519 3.809,-9.742 1.66,-3.223 3.931,-6.08 6.813,-8.571 2.879,-2.49 6.519,-4.518 10.914,-6.079 4.395,-1.562 9.669,-2.345 15.822,-2.345 7.813,0 14.333,1.15 19.559,3.443 5.223,2.294 9.399,5.444 12.526,9.45 3.124,4.003 5.347,8.691 6.665,14.064 1.319,5.37 1.978,11.182 1.978,17.434 l 0,62.703 -6.446,0 0,-62.703 c 0,-5.959 -0.586,-11.331 -1.758,-16.115 -1.172,-4.787 -3.102,-8.864 -5.787,-12.233 -2.687,-3.37 -6.203,-5.959 -10.548,-7.765 -4.347,-1.809 -9.742,-2.71 -16.189,-2.71 -5.079,0 -9.401,0.659 -12.965,1.977 -3.567,1.319 -6.57,3.077 -9.01,5.274 -2.443,2.198 -4.372,4.689 -5.787,7.472 -1.417,2.784 -2.516,5.615 -3.296,8.497 -0.783,2.88 -1.271,5.689 -1.465,8.424 -0.197,2.733 -0.293,5.128 -0.293,7.179 l 0,62.703 -6.446,0 z M 220.459,0 l 69.27,0 0,5.567 -62.824,0 0,99.036 -6.446,0 0,-104.603 z m 81.976,0 6.446,0 0,104.603 -6.446,0 0,-104.603 z m 24.905,0 6.447,0 0,46.588 35.746,0 c 10.549,0 18.654,2.491 24.32,7.472 5.663,4.981 8.497,12.061 8.497,21.243 0,6.249 -1.025,11.303 -3.077,15.163 -2.051,3.857 -4.614,6.835 -7.691,8.936 -3.077,2.1 -6.398,3.491 -9.962,4.176 -3.567,0.682 -6.813,1.025 -9.743,1.025 l -44.537,0 0,-104.603 z m 6.447,99.036 37.651,0 c 5.274,0 9.497,-0.856 12.672,-2.564 3.173,-1.71 5.641,-3.809 7.399,-6.299 1.758,-2.491 2.93,-5.08 3.516,-7.765 0.586,-2.687 0.879,-5.006 0.879,-6.959 0,-2.735 -0.44,-5.471 -1.319,-8.204 -0.879,-2.736 -2.296,-5.226 -4.248,-7.472 -1.955,-2.248 -4.567,-4.079 -7.838,-5.494 -3.274,-1.417 -7.252,-2.124 -11.94,-2.124 l -36.772,0 0,46.881 z M 413.922,0 l 69.27,0 0,5.567 -62.824,0 0,99.036 -6.446,0 0,-104.603 z m 79.498,0 6.886,0 13.332,33.549 50.104,0 L 576.927,0 l 6.886,0 -41.314,104.603 -7.032,0 L 493.42,0 Z m 22.269,39.116 23.294,59.188 0.293,0 22.415,-59.188 -46.002,0 z m 97.863,10.109 -37.798,55.378 -7.325,0 41.754,-60.799 0,-251.661 6.446,0 0,251.661 42.046,60.799 -7.178,0 -37.945,-55.378 z M 664.827,0 l 71.054,0 0,5.567 -64.608,0 0,46.002 60.066,0 0,5.567 -60.066,0 0,41.9 63.875,0 0,5.567 -70.321,0 0,-104.603 z m 80.296,0 6.447,0 0,47.614 37.211,0 c 6.154,0 10.915,-0.831 14.284,-2.491 3.37,-1.662 5.835,-3.859 7.399,-6.593 1.561,-2.735 2.49,-5.837 2.783,-9.303 0.293,-3.468 0.44,-6.959 0.44,-10.475 0,-3.516 0.073,-6.91 0.22,-10.182 0.146,-3.273 0.902,-6.13 2.27,-8.57 l 7.179,0 c -0.783,0.975 -1.392,2.198 -1.831,3.663 -0.44,1.465 -0.758,3.051 -0.952,4.761 -0.197,1.708 -0.293,3.539 -0.293,5.494 l 0,6.006 c 0,3.418 -0.197,6.836 -0.586,10.256 -0.392,3.417 -1.271,6.542 -2.637,9.376 -1.369,2.831 -3.443,5.224 -6.227,7.179 -2.783,1.952 -6.57,3.223 -11.354,3.809 l 0,0.293 c 7.032,1.172 12.526,4.175 16.482,9.01 3.955,4.834 5.933,10.768 5.933,17.8 0,5.077 -0.856,9.326 -2.564,12.745 -1.71,3.418 -4.079,6.176 -7.105,8.278 -3.029,2.099 -6.545,3.612 -10.548,4.541 -4.006,0.928 -8.303,1.392 -12.893,1.392 l -43.658,0 0,-104.603 z m 6.447,53.181 0,45.855 37.211,0 c 3.516,0 6.886,-0.391 10.109,-1.172 3.223,-0.783 6.055,-2.051 8.497,-3.809 2.44,-1.758 4.395,-4.029 5.86,-6.812 1.465,-2.784 2.198,-6.131 2.198,-10.036 0,-4.2 -0.685,-7.815 -2.051,-10.841 -1.369,-3.029 -3.223,-5.519 -5.567,-7.472 -2.344,-1.955 -5.153,-3.394 -8.424,-4.322 -3.274,-0.929 -6.813,-1.391 -10.622,-1.391 l -37.211,0 z" /></g></g></g></g></svg>